<svg xmlns="http://www.w3.org/2000/svg" viewBox="0 0 24 24"><path d="M12 2.163c3.204 0 3.584.012 4.85.07 1.206.057 2.007.248 2.677.53.802.334 1.472.777 2.12 1.425.647.647 1.091 1.317 1.425 2.12.282.669.473 1.471.53 2.676.059 1.268.07 1.648.07 4.851s-.012 3.584-.07 4.85c-.057 1.206-.248 2.007-.53 2.676-.334.802-.777 1.472-1.425 2.12-.647.647-1.317 1.091-2.12 1.425-.669.282-1.471.473-2.676.53-1.268.059-1.648.07-4.851.07s-3.584-.012-4.85-.07c-1.206-.057-2.007-.248-2.676-.53-.802-.334-1.472-.777-2.12-1.425-.647-.647-1.091-1.317-1.425-2.12-.282-.669-.473-1.471-.53-2.676C2.174 15.834 2.163 15.454 2.163 12s.012-3.584.07-4.851c.057-1.206.248-2.007.53-2.676.334-.802.777-1.472 1.425-2.12.647-.647 1.317-1.091 2.12-1.425.669-.282 1.471-.473 2.676-.53 1.268-.059 1.648-.07 4.851-.07M12 0C8.741 0 8.332.014 7.053.072 5.772.13 4.796.333 4.05.614c-.87.307-1.601.756-2.325 1.481C.963 3.82.513 4.552.206 5.423.048 6.2-.135 7.079-.193 8.363-.251 9.645-.264 10.06-.264 12.001s.013 2.357.071 3.64c.058 1.285.241 2.164.399 2.94.307.871.757 1.602 1.482 2.325.725.725 1.457 1.175 2.328 1.482.776.157 1.655.34 2.939.399 1.283.058 1.698.071 3.639.071s2.357-.013 3.64-.071c1.285-.058 2.164-.241 2.94-.399.871-.307 1.602-.757 2.325-1.482.725-.725 1.175-1.457 1.482-2.328.157-.776.34-1.655.399-2.939.058-1.283.071-1.698.071-3.64s-.013-2.357-.071-3.64c-.058-1.285-.241-2.164-.399-2.94-.307-.871-.757-1.602-1.482-2.325-.725-.725-1.457-1.175-2.328-1.482-.776-.157-1.655-.34-2.939-.399C14.358.014 13.943 0 12 0zm0 5.838c-3.413 0-6.162 2.748-6.162 6.162 0 3.413 2.749 6.162 6.162 6.162s6.162-2.749 6.162-6.162c0-3.413-2.749-6.162-6.162-6.162zm0 10.162c-2.208 0-4-1.792-4-4s1.792-4 4-4 4 1.792 4 4-1.792 4-4 4zm6.406-11.845c-.796 0-1.444.648-1.444 1.445s.648 1.445 1.445 1.445 1.445-.648 1.445-1.445-.648-1.445-1.445-1.445z"/></svg>