<svg xmlns="http://www.w3.org/2000/svg" viewBox="0 0 24 24"><path d="M22.225 0H1.771C.792 0 0 .774 0 1.729v20.543C0 23.226.792 24 1.771 24h20.451C23.208 24 24 23.226 24 22.271V1.729C24 .774 23.208 0 22.225 0zM7.2 20.452H3.547V9.287H7.2v11.165zM5.372 7.73c-1.159 0-2.098-.94-2.098-2.097C3.274 4.474 4.213 3.5 5.372 3.5c1.16 0 2.099.975 2.099 2.133 0 1.157-.939 2.097-2.099 2.097zM20.452 20.452h-3.654v-5.419c0-1.296-.029-2.96-1.8-2.96-1.8 0-2.078 1.406-2.078 2.857v5.522h-3.653V9.287h3.506v1.524h.048c.488-.922 1.68-1.898 3.455-1.898 3.693 0 4.374 2.43 4.374 5.587v6.952z"/></svg>